<svg xmlns="http://www.w3.org/2000/svg" viewBox="0 0 186.67 189.22"><title>Ресурс 3</title><g id="Слой_2" data-name="Слой 2"><g id="Слой_2-2" data-name="Слой 2"><path d="M15.93,75.85a2.17,2.17,0,0,0-2,.48,10.92,10.92,0,0,0-1.9,2.72,21.21,21.21,0,0,1-2,3.14c-1.67,2-3.55,2.86-5.64,2.46a5,5,0,0,1-2.72-1.48,6.11,6.11,0,0,1-1.49-3,10.19,10.19,0,0,1,0-4,9,9,0,0,1,1.52-3.68,6.27,6.27,0,0,1,2.71-2.19,5.92,5.92,0,0,1,3.4-.3l-.8,4.14a2.74,2.74,0,0,0-2.31.45A3.58,3.58,0,0,0,3.5,76.86a3.85,3.85,0,0,0,.18,2.48,2,2,0,0,0,1.53,1.17A2,2,0,0,0,7,79.85a11.3,11.3,0,0,0,1.8-2.67,12.83,12.83,0,0,1,3.64-4.63,5.31,5.31,0,0,1,4.23-.85,4.91,4.91,0,0,1,3.7,2.76,8.7,8.7,0,0,1,.45,5.6,10.41,10.41,0,0,1-1.66,4,6.86,6.86,0,0,1-2.89,2.46,6,6,0,0,1-3.61.33l.8-4.15c2.22.43,3.58-.68,4.1-3.32A3.88,3.88,0,0,0,17.44,77,2,2,0,0,0,15.93,75.85Z"/><path d="M29.45,56,27.68,59.8l-8-3.67-3.44,7.46,8,3.67-1.77,3.83L3.9,62.52l1.77-3.83,7.52,3.47,3.45-7.46L9.11,51.23l1.77-3.83Z"/><path d="M31.56,38.72l-5,6.38,4.32,3.37L36.75,41l2.67,2.08L31,53.87,14.86,41.3l8.41-10.79L26,32.61l-5.82,7.47,3.84,3,5-6.38Z"/><path d="M41.51,31.45l-2.59,2.13,4.76,5.78L40.42,42l-13-15.79,5.87-4.83a8.59,8.59,0,0,1,5.34-2.31,5.58,5.58,0,0,1,4.42,2.28,6.32,6.32,0,0,1,1.52,3.27,6.18,6.18,0,0,1-.71,3.46l8.73,3.65.12.15-3.49,2.87Zm-4.76-.51,2.63-2.15a3.56,3.56,0,0,0,1.38-2.19A2.86,2.86,0,0,0,40,24.33a3.09,3.09,0,0,0-2.08-1.24,3.42,3.42,0,0,0-2.48,1L32.85,26.2Z"/><path d="M58.23,29.22l-3.66,2.09L44.43,13.55l3.66-2.09Z"/><path d="M82.55,20.8l-4.08,1.07-11.33-11,3.39,13L66.45,25,61.3,5.2l4.08-1.06,11.35,11-3.4-13L77.39,1Z"/><path d="M100.4,0l.09,13.47a6.87,6.87,0,0,1-2.06,5.32,8,8,0,0,1-5.73,2A8.13,8.13,0,0,1,87,18.92a6.75,6.75,0,0,1-2.18-5.19L84.73.1l4.21,0L89,13.57a3.9,3.9,0,0,0,1,2.93,3.68,3.68,0,0,0,2.67.9q3.55,0,3.58-3.76L96.18,0Z"/><path d="M111.91,15.21l-3.27-.77-1.71,7.29-4.1-1L107.51.86l7.4,1.74A8.57,8.57,0,0,1,120,5.45a5.57,5.57,0,0,1,.87,4.89,6.3,6.3,0,0,1-1.68,3.19A6.11,6.11,0,0,1,116,15.07l2.39,9.15,0,.19-4.4-1Zm-2.48-4.09,3.31.78a3.43,3.43,0,0,0,2.57-.23,2.88,2.88,0,0,0,1.36-2,3.1,3.1,0,0,0-.28-2.41,3.43,3.43,0,0,0-2.26-1.38l-3.3-.78Z"/><path d="M123.83,27.17,120,25.52l8-18.83,3.88,1.64Z"/><path d="M138.59,29.38a2.14,2.14,0,0,0,.27-2A11.15,11.15,0,0,0,137,24.62a20.73,20.73,0,0,1-2.19-3q-1.94-3.45-.23-6.15a4.94,4.94,0,0,1,2.36-2,6.13,6.13,0,0,1,3.36-.28A10.06,10.06,0,0,1,144,14.63a9.16,9.16,0,0,1,2.87,2.76A6.17,6.17,0,0,1,148,20.7,5.83,5.83,0,0,1,147,24l-3.56-2.25a2.77,2.77,0,0,0,.42-2.32,3.64,3.64,0,0,0-1.69-2,3.9,3.9,0,0,0-2.38-.73,2,2,0,0,0-1.64,1,2,2,0,0,0,0,1.95,11.11,11.11,0,0,0,1.82,2.64,13,13,0,0,1,3,5.07,5.37,5.37,0,0,1-.75,4.25,4.91,4.91,0,0,1-3.92,2.45,8.78,8.78,0,0,1-5.38-1.61,10.35,10.35,0,0,1-3.17-3,6.78,6.78,0,0,1-1.24-3.58,6.18,6.18,0,0,1,1-3.49l3.58,2.26q-1.81,2.87,1.61,5a3.88,3.88,0,0,0,2.31.74A2,2,0,0,0,138.59,29.38Z"/><path d="M146,38l6.39,6.26L150,46.69l-9.4-9.21L155,22.87l3,2.95Z"/><path d="M160.89,55.35l-4-6.22-4.31,1.09-2.42-3.77,21.33-4.62,2.11,3.29-13.1,17.47-2.41-3.77Zm-.5-7.1,2.76,4.3,5.06-6.29Z"/><path d="M182.11,62.58l-12.72,9.25,15.7.79,1.58,5.31-19.61,5.82-1.2-4.06,5.35-1.59,9.38-2.34-16.19-1L163.58,72l13-9.61-9.12,3.14-5.36,1.59-1.2-4,19.61-5.81Z"/><path d="M165.9,107.91l.57-4L182,106.12l-.8-5,3.27.47,1.8,8.82-.06.43Z"/><path d="M160.07,126.61l4.84-13.16,2.61,1,4.33,8.64a16.51,16.51,0,0,0,1.75,2.79,4.15,4.15,0,0,0,1.75,1.34,3.15,3.15,0,0,0,2.25.09,2.5,2.5,0,0,0,1.41-1.57,2.72,2.72,0,0,0-.14-2.37,3.74,3.74,0,0,0-2.07-1.6l1.41-3.83a6.63,6.63,0,0,1,2.89,2,6.34,6.34,0,0,1,1.41,3.2,7.66,7.66,0,0,1-.46,3.77,7.25,7.25,0,0,1-3.11,4.09,5.39,5.39,0,0,1-4.63.16,6.88,6.88,0,0,1-2.63-1.81,17.29,17.29,0,0,1-2.51-3.79l-3-6.06-3,8.25Z"/><path d="M167.57,133.82l8.19,6.51-6.09,9.72-2.87-1.8,4.32-6.89-3.46-2.77a6.43,6.43,0,0,1-1,3,5.88,5.88,0,0,1-4,2.92,7.17,7.17,0,0,1-5.17-1.29,7.29,7.29,0,0,1-2.56-2.59,5.82,5.82,0,0,1-.79-3.32,7.48,7.48,0,0,1,1.22-3.58,8.08,8.08,0,0,1,2.46-2.51,6.06,6.06,0,0,1,3.13-1,5.72,5.72,0,0,1,3.15.82l-2.14,3.4a3,3,0,0,0-2.15-.3,2.81,2.81,0,0,0-1.67,1.32,2.5,2.5,0,0,0-.29,2.32,4.58,4.58,0,0,0,2,2.12,3.77,3.77,0,0,0,2.72.69,3.12,3.12,0,0,0,2.08-1.56,3.53,3.53,0,0,0,.6-2.39l-.1-.53Z"/><path d="M134,156.63l3.24-2.7,5.6,6.75,6.32-5.25-5.6-6.75,3.25-2.69,13.06,15.74-3.24,2.69L151.34,158,145,163.29l5.3,6.38-3.24,2.69Z"/><path d="M127.48,160l3.68-2.06,10,17.84-3.68,2.06Z"/><path d="M110.49,169.42a7.28,7.28,0,0,1,2.34-3,13.71,13.71,0,0,1,4.11-2.23,9.15,9.15,0,0,1,4.78-.43,7.73,7.73,0,0,1,4,2.16,11.82,11.82,0,0,1,2.76,4.53l.45,1.32a12.57,12.57,0,0,1,.77,5.34,7.6,7.6,0,0,1-1.69,4.22,9.79,9.79,0,0,1-9.86,2.85,7.42,7.42,0,0,1-4-4l3.87-1.34a4.14,4.14,0,0,0,2,2,4,4,0,0,0,2.77-.1,3.74,3.74,0,0,0,2.56-2.6,8.42,8.42,0,0,0-.5-4.91l-.43-1.24a8.09,8.09,0,0,0-2.75-4.19,4.16,4.16,0,0,0-3.92-.37,4.64,4.64,0,0,0-2.87,2.06l1.16,3.33,3.62-1.26,1,2.94-7.6,2.64Z"/><path d="M90.86,168.83l4.2-.35.72,8.74,8.19-.68-.72-8.73,4.2-.35,1.68,20.38-4.2.35-.68-8.26-8.19.68.68,8.26-4.2.35Z"/><path d="M77,172.19a2.19,2.19,0,0,0,.55,1.95A10.89,10.89,0,0,0,80.32,176a21.87,21.87,0,0,1,3.2,1.93q3.14,2.42,2.63,5.56a4.84,4.84,0,0,1-1.39,2.77,6,6,0,0,1-3,1.58,10,10,0,0,1-4,.1,9.21,9.21,0,0,1-3.73-1.4,6.3,6.3,0,0,1-2.27-2.64,5.89,5.89,0,0,1-.42-3.39l4.16.66a2.76,2.76,0,0,0,.53,2.3,3.64,3.64,0,0,0,2.33,1.17,3.92,3.92,0,0,0,2.48-.27A2.09,2.09,0,0,0,82,182.76a2,2,0,0,0-.73-1.81,11.58,11.58,0,0,0-2.72-1.72,12.83,12.83,0,0,1-4.75-3.48,5.37,5.37,0,0,1-1-4.2,4.94,4.94,0,0,1,2.65-3.79,8.8,8.8,0,0,1,5.58-.63,10.57,10.57,0,0,1,4.11,1.53,6.84,6.84,0,0,1,2.54,2.81,6.06,6.06,0,0,1,.45,3.6L84,174.4c.36-2.23-.8-3.56-3.46-4a3.94,3.94,0,0,0-2.41.23A2,2,0,0,0,77,172.19Z"/><path d="M54.57,165.9A7.22,7.22,0,0,1,58.8,162a8.58,8.58,0,0,1,6.08.46,7.66,7.66,0,0,1,4.71,4.81,10.81,10.81,0,0,1-.69,7.58L68.43,176a12.26,12.26,0,0,1-2.94,4.41,7.85,7.85,0,0,1-4.07,2.06A9.28,9.28,0,0,1,52.27,178a7.77,7.77,0,0,1-.28-5.88l3.89,1.61a4.26,4.26,0,0,0-.07,3.08,4,4,0,0,0,2.32,1.92,3.6,3.6,0,0,0,3.5-.19,8.59,8.59,0,0,0,2.78-3.92l.58-1.43a9,9,0,0,0,.92-4.87,3.49,3.49,0,0,0-2.34-2.62,4.21,4.21,0,0,0-3-.29,4.07,4.07,0,0,0-2.08,2.13Z"/><path d="M42.37,148.88l3.39,2.51-5.22,7.05,6.61,4.89,5.21-7.05,3.39,2.51L43.58,175.23l-3.39-2.51,4.93-6.66-6.6-4.89-4.93,6.66-3.39-2.51Z"/><path d="M22.46,140.18a12.44,12.44,0,0,1,4.8-2.49,8,8,0,0,1,4.65.18A9,9,0,0,1,37.62,145a8.08,8.08,0,0,1-.78,4.59,11.93,11.93,0,0,1-3.37,4.14l-.79.63a12.31,12.31,0,0,1-4.82,2.49,8.15,8.15,0,0,1-4.68-.19,9,9,0,0,1-5.7-7.08,8.12,8.12,0,0,1,.82-4.61,12.27,12.27,0,0,1,3.45-4.17Zm2,3.9a8.67,8.67,0,0,0-3.09,4,4.06,4.06,0,0,0,4.09,5.12,8.53,8.53,0,0,0,4.51-2.12l.77-.63a8.74,8.74,0,0,0,3.07-3.94,3.75,3.75,0,0,0-.73-3.67,3.7,3.7,0,0,0-3.34-1.49,8.64,8.64,0,0,0-4.5,2.14Z"/><path d="M13.31,121.12a12.27,12.27,0,0,1,5.27-1.21A8,8,0,0,1,23,121.24a9,9,0,0,1,3.76,8.28,8,8,0,0,1-1.9,4.25,12,12,0,0,1-4.3,3.17l-.92.42a12.27,12.27,0,0,1-5.29,1.2,8.1,8.1,0,0,1-4.48-1.35,9,9,0,0,1-3.75-8.28,8.05,8.05,0,0,1,1.94-4.25,12,12,0,0,1,4.38-3.18Zm.92,4.27a8.68,8.68,0,0,0-4,3.07,3.74,3.74,0,0,0-.16,3.68,3.73,3.73,0,0,0,2.85,2.3,8.45,8.45,0,0,0,4.89-.93l.91-.41a8.8,8.8,0,0,0,4-3.06,3.76,3.76,0,0,0,.21-3.73A3.71,3.71,0,0,0,20,124a8.57,8.57,0,0,0-4.89,1Z"/><path d="M17.72,111.67l-1.8-8.77,3.31-.68,2.65,12.89-20,4.12L1,115.1Z"/></g></g></svg>